<svg width="21" height="15" viewBox="0 0 21 15" fill="none" xmlns="http://www.w3.org/2000/svg">
<path d="M2.48612 0.308222C1.54357 0.308222 0.78621 1.14301 0.78621 2.16237V12.8296C0.78621 13.849 1.54357 14.6918 2.48612 14.6918H18.5139C19.4564 14.6918 20.2138 13.849 20.2138 12.8296V2.16237C20.2138 1.14301 19.4564 0.308222 18.5139 0.308222H2.48612ZM2.48612 0.821921H18.5139C18.8173 0.821921 19.0905 0.950317 19.3031 1.15099L11.2665 9.22573C10.8213 9.67285 10.1945 9.66458 9.74869 9.21776L1.69688 1.15107C1.90946 0.950395 2.18266 0.821921 2.48612 0.821921ZM1.4085 1.56837L7.41131 7.58831L1.58303 13.7366C1.39072 13.4989 1.2719 13.1794 1.2719 12.8296V2.16237C1.2719 1.94382 1.32739 1.7486 1.4085 1.56837ZM19.5915 1.56837C19.6726 1.7486 19.7281 1.94382 19.7281 2.16237V12.8296C19.7281 13.1794 19.6093 13.4989 19.417 13.7366L13.6038 7.58027L19.5915 1.56837ZM13.2548 7.93344L19.0223 14.0497C18.8667 14.1294 18.6972 14.1781 18.5139 14.1781H2.48612C2.30275 14.1781 2.13334 14.1294 1.97766 14.0497L7.76042 7.94148L9.41478 9.59492C10.0333 10.215 10.9822 10.2157 11.6004 9.59492L13.2548 7.93344Z" fill="#BCCAD2"/>
<path fill-rule="evenodd" clip-rule="evenodd" d="M0.5 2.16237C0.5 0.977453 1.3812 0 2.48612 0H18.5139C19.6188 0 20.5 0.977453 20.5 2.16237V12.8296C20.5 14.0128 19.6204 15 18.5139 15H2.48612C1.37961 15 0.5 14.0128 0.5 12.8296V2.16237ZM2.16345 1.19753L9.94363 8.99209C10.2823 9.33159 10.7388 9.33423 11.0713 9.00031L18.8371 1.19771C18.7358 1.15404 18.6271 1.13014 18.5139 1.13014H2.48612C2.37309 1.13014 2.26458 1.15397 2.16345 1.19753ZM1.55837 2.13984C1.5582 2.14733 1.55811 2.15483 1.55811 2.16237V12.8296C1.55811 12.9797 1.58601 13.1219 1.63547 13.2498L6.99696 7.59395L1.55837 2.13984ZM14.0176 7.5862L19.3648 13.2491C19.4141 13.1214 19.4419 12.9794 19.4419 12.8296V2.16237C19.4419 2.15497 19.4418 2.1476 19.4416 2.14024L14.0176 7.5862ZM13.2494 8.36029L11.7956 9.82032C11.0674 10.5516 9.94832 10.5506 9.22008 9.82083M9.22008 9.82083L7.76588 8.36744L2.55661 13.8699H18.4449L13.2494 8.36029" fill="#BCCAD2"/>
</svg>
